<svg width="155" height="84" viewBox="0 0 155 84" fill="none" xmlns="http://www.w3.org/2000/svg">
<path d="M6.2168 71.1095V30.0244H14.2085V49.5462L31.4637 29.9707H40.2654L24.5161 48.2757L41.2525 71.1095H32.2167L19.4762 53.3734L14.2085 58.8188V71.1095H6.2168Z" fill="#141111"/>
<path d="M44.2043 36.5066V28.8711H51.905V36.5066H44.2043ZM44.2043 71.1002V40.7889H51.905V71.1096L44.2043 71.1002Z" fill="#141111"/>
<path d="M87.1717 71.1097H79.4109V54.3596C79.4109 51.9683 78.9954 50.2206 78.1644 49.1165C77.3334 48.0125 76.1459 47.4605 74.602 47.4605C73.4997 47.4736 72.416 47.7453 71.4382 48.2537C70.3586 48.79 69.392 49.5281 68.5908 50.4281C67.7522 51.3631 67.0946 52.4454 66.6514 53.6201V71.1097H58.9697V41.086H65.9775V46.6862C66.731 45.4102 67.7364 44.3005 68.9325 43.4247C70.1834 42.5217 71.5723 41.827 73.0454 41.3672C74.6563 40.8615 76.3366 40.6109 78.0252 40.6246C79.9235 40.6246 81.4779 40.9574 82.6886 41.6232C83.8559 42.2449 84.82 43.1883 85.4664 44.3412C86.1184 45.5226 86.5685 46.8043 86.7984 48.1336C87.0501 49.5206 87.1762 50.9274 87.1749 52.337L87.1717 71.1097Z" fill="#141111"/>
<path d="M105.819 71.6787C103.909 71.7034 102.019 71.2926 100.292 70.4777C98.6337 69.6837 97.1629 68.5472 95.9767 67.1435C94.7581 65.6956 93.8165 64.0362 93.1988 62.2481C92.5341 60.3479 92.2013 58.3478 92.2149 56.335C92.1952 54.2451 92.5377 52.1675 93.2273 50.1943C93.8695 48.3562 94.8514 46.6549 96.1222 45.1788C97.3493 43.7508 98.8711 42.6048 100.583 41.8193C102.372 41.0119 104.316 40.6063 106.278 40.631C108.447 40.582 110.589 41.1215 112.476 42.1922C114.254 43.2356 115.761 44.6819 116.877 46.4145V41.0861H123.653V69.7508C123.653 72.7385 122.915 75.2952 121.439 77.4211C119.945 79.5704 117.881 81.2612 115.478 82.3039C112.966 83.4353 110.07 84.001 106.79 84.001C103.511 84.001 100.732 83.4511 98.4539 82.3513C96.1797 81.2565 94.1806 79.6657 92.6041 77.6961L96.8309 73.5875C98.0095 75.0284 99.506 76.1772 101.203 76.9439C102.954 77.7518 104.862 78.1661 106.79 78.1575C108.337 78.1719 109.872 77.8853 111.308 77.3137C112.645 76.7921 113.795 75.8816 114.608 74.7C115.418 73.518 115.824 71.9705 115.826 70.0574V66.2396C114.865 67.972 113.401 69.3733 111.628 70.2597C109.835 71.1941 107.842 71.681 105.819 71.6787ZM108.426 65.4875C109.264 65.4967 110.097 65.3598 110.888 65.0829C111.639 64.8121 112.349 64.4411 113.001 63.98C113.657 63.5153 114.242 62.9586 114.738 62.3271C115.217 61.7271 115.589 61.0493 115.839 60.3234V53.1272C115.434 51.9648 114.793 50.8985 113.956 49.9952C113.169 49.1377 112.225 48.4383 111.175 47.9347C110.172 47.4549 109.074 47.2065 107.961 47.2078C106.844 47.1983 105.742 47.4574 104.747 47.9631C103.759 48.4646 102.895 49.178 102.216 50.0521C101.512 50.9616 100.965 51.9816 100.596 53.0703C100.211 54.1889 100.015 55.3638 100.017 56.5467C100.009 57.7378 100.234 58.9189 100.681 60.0232C101.116 61.0794 101.734 62.0508 102.507 62.8928C103.252 63.7209 104.172 64.3748 105.199 64.808C106.217 65.2517 107.315 65.4829 108.426 65.4875Z" fill="#141111"/>
<path d="M141.839 71.6783C139.304 71.6893 136.786 71.2616 134.398 70.4142C132.123 69.6295 130.055 68.3442 128.345 66.6533L131.193 61.622C132.769 62.9631 134.544 64.0526 136.454 64.8519C138.069 65.5225 139.799 65.8766 141.548 65.8948C143.054 65.8948 144.26 65.6336 145.167 65.111C145.593 64.8901 145.948 64.5526 146.189 64.138C146.431 63.7233 146.549 63.2485 146.531 62.7692C146.551 62.4403 146.493 62.1113 146.362 61.8088C146.231 61.5063 146.031 61.2388 145.778 61.0278C145.123 60.5548 144.386 60.2065 143.604 60.0007C142.659 59.7141 141.511 59.3813 140.159 59.002C138.249 58.4408 136.382 57.7437 134.572 56.9161C133.242 56.3348 132.077 55.4323 131.183 54.2899C130.415 53.2448 130.032 51.8985 130.032 50.2509C129.985 48.4276 130.522 46.6371 131.566 45.1405C132.661 43.656 134.142 42.5005 135.85 41.8C137.896 40.9602 140.095 40.5524 142.307 40.6022C144.396 40.5906 146.473 40.9326 148.448 41.6135C150.418 42.3135 152.214 43.4279 153.716 44.8814L150.533 49.8558C149.228 48.7465 147.764 47.8398 146.189 47.1663C144.847 46.6173 143.412 46.3329 141.962 46.3288C141.191 46.3237 140.422 46.4194 139.675 46.6133C139.022 46.7717 138.422 47.0986 137.935 47.5614C137.703 47.8085 137.525 48.1003 137.411 48.4188C137.297 48.7373 137.249 49.0757 137.27 49.4134C137.257 49.7149 137.303 50.0161 137.408 50.2994C137.512 50.5827 137.672 50.8423 137.878 51.0631C138.408 51.5558 139.041 51.925 139.732 52.144C140.561 52.4474 141.574 52.7897 142.772 53.1711C144.859 53.736 146.909 54.4295 148.91 55.2475C150.572 55.9533 151.837 56.8361 152.706 57.8959C153.575 58.9557 154.01 60.3978 154.01 62.2224C154.01 65.1848 152.91 67.5024 150.71 69.1753C148.51 70.8482 145.553 71.6825 141.839 71.6783Z" fill="#141111"/>
<path d="M38.2818 8.19279C37.8634 8.19655 37.4526 8.30383 37.0859 8.50504C36.7193 8.70624 36.4082 8.9951 36.1807 9.34577C35.9531 9.69643 35.8161 10.098 35.782 10.5145C35.7478 10.931 35.8175 11.3494 35.9849 11.7324C33.6342 12.6395 29.9009 13.6761 26.8352 12.6805C23.7695 11.685 22.1307 8.02529 21.3144 5.41165C21.9047 5.24878 22.4158 4.87766 22.7531 4.36709C23.0904 3.85651 23.2309 3.24111 23.1486 2.63494C23.0663 2.02877 22.7669 1.47295 22.3057 1.07051C21.8445 0.668065 21.2529 0.446289 20.6405 0.446289C20.0282 0.446289 19.4366 0.668065 18.9754 1.07051C18.5142 1.47295 18.2147 2.02877 18.1324 2.63494C18.0502 3.24111 18.1907 3.85651 18.528 4.36709C18.8652 4.87766 19.3764 5.24878 19.9666 5.41165C19.1536 8.01897 17.4957 11.6787 14.4458 12.6805C11.396 13.6824 7.64688 12.6489 5.29619 11.7324C5.54285 11.196 5.59256 10.59 5.4366 10.0206C5.28065 9.45124 4.92899 8.9549 4.4433 8.61866C3.95761 8.28241 3.36892 8.12772 2.78047 8.18172C2.19202 8.23573 1.64139 8.49498 1.22516 8.91399C0.808938 9.33301 0.553694 9.88504 0.504202 10.4733C0.45471 11.0615 0.614129 11.6483 0.954497 12.1309C1.29487 12.6134 1.79445 12.9608 2.36562 13.1122C2.93679 13.2636 3.54308 13.2092 4.07814 12.9587C5.06524 15.2657 6.36871 19.0361 6.36871 22.8791H34.8934C34.8934 19.0361 36.1968 15.2657 37.1839 12.9587C37.5268 13.1384 37.9064 13.2372 38.2935 13.2473C38.6806 13.2575 39.0649 13.1788 39.4167 13.0173C39.7686 12.8558 40.0787 12.6159 40.3231 12.3159C40.5675 12.0158 40.7398 11.6638 40.8266 11.2869C40.9135 10.9099 40.9125 10.5181 40.824 10.1415C40.7354 9.76496 40.5615 9.41373 40.3157 9.11486C40.0698 8.81599 39.7587 8.57745 39.406 8.41759C39.0534 8.25773 38.6688 8.18083 38.2818 8.19279Z" fill="url(#paint0_linear_69_49)"/>
<path d="M35.3679 23.3621H5.89412V22.8881C5.89412 19.4116 4.80262 15.97 3.81552 13.5776C3.21301 13.7505 2.57132 13.7299 1.98118 13.5187C1.39103 13.3074 0.882296 12.9162 0.526893 12.4003C0.171491 11.8845 -0.0125925 11.2701 0.0006694 10.644C0.0139313 10.0179 0.223868 9.41183 0.600796 8.91145C0.977725 8.41107 1.50257 8.0417 2.10114 7.85557C2.6997 7.66944 3.34168 7.67597 3.93633 7.87423C4.53097 8.07249 5.04819 8.45245 5.41484 8.96039C5.7815 9.46834 5.97904 10.0786 5.97955 10.7048C5.98018 10.9564 5.94828 11.2071 5.88463 11.4506C8.2986 12.3324 11.5794 13.1067 14.2908 12.2218C16.942 11.3527 18.5018 8.28076 19.3528 5.6924C18.7365 5.40474 18.2368 4.9157 17.9362 4.30603C17.6356 3.69636 17.5522 3.00252 17.6997 2.33909C17.8472 1.67566 18.2168 1.08232 18.7474 0.657049C19.2781 0.231774 19.938 0 20.6184 0C21.2987 0 21.9587 0.231774 22.4893 0.657049C23.02 1.08232 23.3895 1.67566 23.537 2.33909C23.6845 3.00252 23.6011 3.69636 23.3005 4.30603C23 4.9157 22.5002 5.40474 21.8839 5.6924C22.7476 8.28076 24.3073 11.3527 26.9617 12.2218C29.6699 13.1067 32.9508 12.3324 35.3647 11.4506C35.3011 11.2071 35.2692 10.9564 35.2698 10.7048C35.2737 10.0821 35.473 9.47635 35.8395 8.97271C36.2061 8.46908 36.7215 8.09293 37.3132 7.8972C37.905 7.70146 38.5433 7.696 39.1383 7.88158C39.7333 8.06715 40.2551 8.43442 40.6302 8.93171C41.0053 9.429 41.215 10.0313 41.2295 10.6538C41.2441 11.2763 41.0629 11.8877 40.7115 12.4019C40.36 12.9162 39.856 13.3074 39.2703 13.5206C38.6846 13.7337 38.0468 13.7581 37.4465 13.5902C36.4594 15.9795 35.3679 19.4148 35.3679 22.9007V23.3621ZM6.83693 22.414H34.4251C34.5232 18.7258 35.7286 15.1641 36.7473 12.7875L36.9435 12.3292L37.3896 12.5441C37.6649 12.6765 37.9667 12.7446 38.2723 12.7432C38.7117 12.7424 39.139 12.5998 39.4906 12.3365C39.8422 12.0733 40.0992 11.7036 40.2232 11.2825C40.3473 10.8614 40.3317 10.4116 40.1789 10.0001C40.0261 9.58855 39.7442 9.23741 39.3752 8.99901C39.0063 8.76062 38.5701 8.64775 38.1317 8.67725C37.6933 8.70674 37.2762 8.87702 36.9426 9.16267C36.609 9.44833 36.3768 9.83406 36.2806 10.2623C36.1844 10.6906 36.2294 11.1385 36.4088 11.5391L36.6144 11.9942L36.1462 12.1744C33.5614 13.173 29.8186 14.1496 26.677 13.1225C23.5354 12.0953 21.751 8.42929 20.8525 5.53754L20.7069 5.0698L21.1784 4.94022C21.6536 4.80804 22.0649 4.50832 22.336 4.09655C22.6071 3.68478 22.7197 3.18885 22.6529 2.70055C22.5861 2.21225 22.3445 1.76465 21.9728 1.44061C21.601 1.11656 21.1244 0.938012 20.631 0.938012C20.1377 0.938012 19.661 1.11656 19.2893 1.44061C18.9175 1.76465 18.6759 2.21225 18.6092 2.70055C18.5424 3.18885 18.655 3.68478 18.926 4.09655C19.1971 4.50832 19.6084 4.80804 20.0837 4.94022L20.5551 5.0698L20.4096 5.53754C19.511 8.41665 17.7678 12.0669 14.585 13.1225C11.4023 14.178 7.70381 13.173 5.11583 12.1744L4.64759 12.01L4.85324 11.5549C5.03343 11.1537 5.07889 10.705 4.98283 10.2758C4.88677 9.8466 4.65433 9.45996 4.32022 9.17358C3.98611 8.8872 3.56825 8.71643 3.129 8.68677C2.68975 8.65711 2.25268 8.77014 1.88302 9.009C1.51337 9.24786 1.23096 9.59973 1.07794 10.0121C0.924929 10.4244 0.909519 10.8752 1.03401 11.297C1.15851 11.7188 1.41623 12.0891 1.76871 12.3526C2.12119 12.6161 2.54952 12.7587 2.98977 12.759C3.29531 12.7604 3.59715 12.6923 3.87247 12.5599L4.31856 12.3261L4.51472 12.7843C5.53345 15.1704 6.73885 18.7258 6.83693 22.414Z" fill="url(#paint1_linear_69_49)"/>
<path d="M78.0664 35.9126V17.8983L70.0557 31.8831H68.6826L60.6371 17.9078V35.922H58.4541V13.7993H60.7004L69.3375 28.9376L78.0348 13.7993H80.2494V35.922L78.0664 35.9126Z" fill="#141111"/>
<path d="M85.7986 35.9124V13.7897H87.9816V26.6462L100.175 13.7676H102.576L93.534 23.4984L103.041 35.9124H100.58L92.1293 24.8068L87.9816 29.1113V35.9124H85.7986Z" fill="#141111"/>
<path d="M121.562 15.7269H113.675V35.9123H111.492V15.7269H103.604V13.7959H121.562V15.7269Z" fill="#141111"/>
<defs>
<linearGradient id="paint0_linear_69_49" x1="0.474589" y1="11.6819" x2="40.7875" y2="11.6819" gradientUnits="userSpaceOnUse">
<stop stop-color="#E2C464"/>
<stop offset="0.23" stop-color="#997134"/>
<stop offset="0.33" stop-color="#D5B55C"/>
<stop offset="0.46" stop-color="#F6F1B7"/>
<stop offset="0.58" stop-color="#D5B55C"/>
<stop offset="0.69" stop-color="#835F2D"/>
<stop offset="1" stop-color="#D5B55C"/>
</linearGradient>
<linearGradient id="paint1_linear_69_49" x1="5.72328" y1="23.0714" x2="38.0651" y2="4.37608" gradientUnits="userSpaceOnUse">
<stop stop-color="#E2C464"/>
<stop offset="0.23" stop-color="#997134"/>
<stop offset="0.33" stop-color="#D5B55C"/>
<stop offset="0.46" stop-color="#F6F1B7"/>
<stop offset="0.58" stop-color="#D5B55C"/>
<stop offset="0.69" stop-color="#835F2D"/>
<stop offset="1" stop-color="#D5B55C"/>
</linearGradient>
</defs>
</svg>
