<svg width="154" height="84" viewBox="0 0 154 84" fill="none" xmlns="http://www.w3.org/2000/svg">
<path d="M6.2168 71.1088V30.0237H14.2085V49.5454L31.4637 29.97H40.2654L24.5161 48.275L41.2525 71.1088H32.2167L19.4762 53.3727L14.2085 58.818V71.1088H6.2168Z" fill="white"/>
<path d="M44.2043 36.5056V28.8701H51.905V36.5056H44.2043ZM44.2043 71.0992V40.7879H51.905V71.1087L44.2043 71.0992Z" fill="white"/>
<path d="M87.1717 71.1087H79.4109V54.3586C79.4109 51.9673 78.9954 50.2196 78.1644 49.1155C77.3334 48.0115 76.1459 47.4595 74.602 47.4595C73.4997 47.4726 72.416 47.7443 71.4382 48.2528C70.3586 48.789 69.392 49.5271 68.5908 50.4271C67.7522 51.3621 67.0946 52.4444 66.6514 53.6191V71.1087H58.9697V41.085H65.9775V46.6852C66.731 45.4092 67.7364 44.2995 68.9325 43.4237C70.1834 42.5208 71.5723 41.826 73.0454 41.3663C74.6563 40.8605 76.3366 40.6099 78.0252 40.6236C79.9235 40.6236 81.4779 40.9565 82.6886 41.6223C83.8559 42.2439 84.82 43.1873 85.4664 44.3402C86.1184 45.5216 86.5685 46.8033 86.7984 48.1327C87.0501 49.5196 87.1762 50.9264 87.1749 52.336L87.1717 71.1087Z" fill="white"/>
<path d="M105.819 71.6775C103.909 71.7021 102.019 71.2914 100.292 70.4765C98.6337 69.6824 97.1629 68.546 95.9767 67.1423C94.7581 65.6944 93.8165 64.035 93.1988 62.2469C92.5341 60.3467 92.2013 58.3465 92.2149 56.3338C92.1952 54.2439 92.5377 52.1663 93.2273 50.1931C93.8695 48.355 94.8514 46.6537 96.1222 45.1776C97.3493 43.7496 98.8711 42.6036 100.583 41.8181C102.372 41.0107 104.316 40.6051 106.278 40.6298C108.447 40.5807 110.589 41.1203 112.476 42.191C114.254 43.2343 115.761 44.6807 116.877 46.4133V41.0849H123.653V69.7496C123.653 72.7372 122.915 75.294 121.439 77.4199C119.945 79.5691 117.881 81.26 115.478 82.3027C112.966 83.4341 110.07 83.9998 106.79 83.9998C103.511 83.9998 100.732 83.4499 98.4539 82.3501C96.1797 81.2553 94.1806 79.6644 92.6041 77.6948L96.8309 73.5863C98.0095 75.0272 99.506 76.176 101.203 76.9427C102.954 77.7506 104.862 78.1649 106.79 78.1563C108.337 78.1707 109.872 77.8841 111.308 77.3124C112.645 76.7909 113.795 75.8803 114.608 74.6988C115.418 73.5168 115.824 71.9693 115.826 70.0562V66.2384C114.865 67.9708 113.401 69.3721 111.628 70.2584C109.835 71.1929 107.842 71.6797 105.819 71.6775ZM108.426 65.4862C109.264 65.4955 110.097 65.3586 110.888 65.0817C111.639 64.8109 112.349 64.4399 113.001 63.9787C113.657 63.5141 114.242 62.9574 114.738 62.3259C115.217 61.7259 115.589 61.0481 115.839 60.3222V53.126C115.434 51.9635 114.793 50.8972 113.956 49.994C113.169 49.1365 112.225 48.4371 111.175 47.9334C110.172 47.4537 109.074 47.2053 107.961 47.2065C106.844 47.1971 105.742 47.4562 104.747 47.9619C103.759 48.4634 102.895 49.1768 102.216 50.0509C101.512 50.9604 100.965 51.9804 100.596 53.0691C100.211 54.1877 100.015 55.3626 100.017 56.5455C100.009 57.7366 100.234 58.9177 100.681 60.0219C101.116 61.0782 101.734 62.0496 102.507 62.8916C103.252 63.7197 104.172 64.3736 105.199 64.8068C106.217 65.2505 107.315 65.4817 108.426 65.4862Z" fill="white"/>
<path d="M141.839 71.6776C139.304 71.6886 136.786 71.2609 134.398 70.4134C132.123 69.6288 130.055 68.3435 128.345 66.6526L131.193 61.6212C132.769 62.9624 134.544 64.0519 136.454 64.8512C138.069 65.5218 139.799 65.8759 141.548 65.8941C143.054 65.8941 144.26 65.6328 145.167 65.1103C145.593 64.8894 145.948 64.5519 146.189 64.1372C146.431 63.7226 146.549 63.2478 146.531 62.7685C146.551 62.4396 146.493 62.1106 146.362 61.8081C146.231 61.5056 146.031 61.2381 145.778 61.0271C145.123 60.554 144.386 60.2058 143.604 60C142.659 59.7134 141.511 59.3805 140.159 59.0013C138.249 58.4401 136.382 57.743 134.572 56.9154C133.242 56.3341 132.077 55.4316 131.183 54.2891C130.415 53.2441 130.032 51.8978 130.032 50.2502C129.985 48.4269 130.522 46.6364 131.566 45.1398C132.661 43.6553 134.142 42.4997 135.85 41.7993C137.896 40.9595 140.095 40.5517 142.307 40.6015C144.396 40.5899 146.473 40.9318 148.448 41.6128C150.418 42.3128 152.214 43.4272 153.716 44.8806L150.533 49.8551C149.228 48.7457 147.764 47.8391 146.189 47.1656C144.847 46.6166 143.412 46.3322 141.962 46.3281C141.191 46.323 140.422 46.4186 139.675 46.6125C139.022 46.7709 138.422 47.0979 137.935 47.5607C137.703 47.8078 137.525 48.0996 137.411 48.4181C137.297 48.7365 137.249 49.075 137.27 49.4127C137.257 49.7142 137.303 50.0154 137.408 50.2987C137.512 50.5819 137.672 50.8416 137.878 51.0624C138.408 51.5551 139.041 51.9242 139.732 52.1432C140.561 52.4466 141.574 52.789 142.772 53.1704C144.859 53.7353 146.909 54.4287 148.91 55.2467C150.572 55.9525 151.837 56.8354 152.706 57.8951C153.575 58.9549 154.01 60.3971 154.01 62.2217C154.01 65.184 152.91 67.5017 150.71 69.1746C148.51 70.8475 145.553 71.6818 141.839 71.6776Z" fill="white"/>
<path d="M38.2818 8.19157C37.8634 8.19533 37.4526 8.30261 37.0859 8.50382C36.7193 8.70502 36.4082 8.99388 36.1807 9.34454C35.9531 9.69521 35.8161 10.0968 35.782 10.5132C35.7478 10.9297 35.8175 11.3482 35.9849 11.7312C33.6342 12.6382 29.9009 13.6748 26.8352 12.6793C23.7695 11.6838 22.1307 8.02407 21.3144 5.41043C21.9047 5.24756 22.4158 4.87644 22.7531 4.36587C23.0904 3.85529 23.2309 3.23989 23.1486 2.63372C23.0663 2.02755 22.7669 1.47173 22.3057 1.06929C21.8445 0.666844 21.2529 0.445068 20.6405 0.445068C20.0282 0.445068 19.4366 0.666844 18.9754 1.06929C18.5142 1.47173 18.2147 2.02755 18.1324 2.63372C18.0502 3.23989 18.1907 3.85529 18.528 4.36587C18.8652 4.87644 19.3764 5.24756 19.9666 5.41043C19.1536 8.01775 17.4957 11.6775 14.4458 12.6793C11.396 13.6812 7.64688 12.6477 5.29619 11.7312C5.54285 11.1948 5.59256 10.5888 5.4366 10.0194C5.28065 9.45002 4.92899 8.95368 4.4433 8.61744C3.95761 8.28119 3.36892 8.1265 2.78047 8.1805C2.19202 8.23451 1.64139 8.49375 1.22516 8.91277C0.808938 9.33179 0.553694 9.88382 0.504202 10.472C0.45471 11.0603 0.614129 11.6471 0.954497 12.1297C1.29487 12.6122 1.79445 12.9596 2.36562 13.111C2.93679 13.2623 3.54308 13.208 4.07814 12.9574C5.06524 15.2645 6.36871 19.0349 6.36871 22.8779H34.8934C34.8934 19.0349 36.1968 15.2645 37.1839 12.9574C37.5268 13.1372 37.9064 13.2359 38.2935 13.2461C38.6806 13.2563 39.0649 13.1776 39.4167 13.0161C39.7686 12.8546 40.0787 12.6146 40.3231 12.3146C40.5675 12.0146 40.7398 11.6626 40.8266 11.2856C40.9135 10.9087 40.9125 10.5168 40.824 10.1403C40.7354 9.76374 40.5615 9.41251 40.3157 9.11364C40.0698 8.81477 39.7587 8.57622 39.406 8.41637C39.0534 8.25651 38.6688 8.17961 38.2818 8.19157Z" fill="url(#paint0_linear_69_36)"/>
<path d="M35.3679 23.3612H5.89412V22.8871C5.89412 19.4107 4.80262 15.969 3.81552 13.5766C3.21301 13.7495 2.57132 13.7289 1.98118 13.5177C1.39103 13.3064 0.882296 12.9152 0.526893 12.3994C0.171491 11.8835 -0.0125925 11.2691 0.0006694 10.643C0.0139313 10.0169 0.223868 9.41086 0.600796 8.91047C0.977725 8.41009 1.50257 8.04072 2.10114 7.8546C2.6997 7.66847 3.34168 7.67499 3.93633 7.87325C4.53097 8.07151 5.04819 8.45148 5.41484 8.95942C5.7815 9.46736 5.97904 10.0776 5.97955 10.7038C5.98018 10.9555 5.94828 11.2062 5.88463 11.4496C8.2986 12.3314 11.5794 13.1057 14.2908 12.2208C16.942 11.3517 18.5018 8.27978 19.3528 5.69142C18.7365 5.40376 18.2368 4.91472 17.9362 4.30505C17.6356 3.69538 17.5522 3.00154 17.6997 2.33812C17.8472 1.67469 18.2168 1.08135 18.7474 0.656072C19.2781 0.230798 19.938 -0.000976563 20.6184 -0.000976562C21.2987 -0.000976563 21.9587 0.230798 22.4893 0.656072C23.02 1.08135 23.3895 1.67469 23.537 2.33812C23.6845 3.00154 23.6011 3.69538 23.3005 4.30505C23 4.91472 22.5002 5.40376 21.8839 5.69142C22.7476 8.27978 24.3073 11.3517 26.9617 12.2208C29.6699 13.1057 32.9508 12.3314 35.3647 11.4496C35.3011 11.2062 35.2692 10.9555 35.2698 10.7038C35.2737 10.0811 35.473 9.47537 35.8395 8.97174C36.2061 8.4681 36.7215 8.09195 37.3132 7.89622C37.905 7.70049 38.5433 7.69502 39.1383 7.8806C39.7333 8.06618 40.2551 8.43345 40.6302 8.93073C41.0053 9.42802 41.215 10.0303 41.2295 10.6528C41.2441 11.2753 41.0629 11.8867 40.7115 12.401C40.36 12.9152 39.856 13.3065 39.2703 13.5196C38.6846 13.7328 38.0468 13.7571 37.4465 13.5892C36.4594 15.9785 35.3679 19.4138 35.3679 22.8997V23.3612ZM6.83693 22.413H34.4251C34.5232 18.7249 35.7286 15.1631 36.7473 12.7865L36.9435 12.3282L37.3896 12.5431C37.6649 12.6755 37.9667 12.7436 38.2723 12.7422C38.7117 12.7415 39.139 12.5988 39.4906 12.3356C39.8422 12.0723 40.0992 11.7026 40.2232 11.2815C40.3473 10.8605 40.3317 10.4106 40.1789 9.99909C40.0261 9.58757 39.7442 9.23643 39.3752 8.99804C39.0063 8.75964 38.5701 8.64678 38.1317 8.67627C37.6933 8.70576 37.2762 8.87604 36.9426 9.1617C36.609 9.44735 36.3768 9.83308 36.2806 10.2614C36.1844 10.6896 36.2294 11.1375 36.4088 11.5381L36.6144 11.9932L36.1462 12.1734C33.5614 13.1721 29.8186 14.1486 26.677 13.1215C23.5354 12.0944 21.751 8.42832 20.8525 5.53656L20.7069 5.06882L21.1784 4.93925C21.6536 4.80706 22.0649 4.50734 22.336 4.09558C22.6071 3.68381 22.7197 3.18787 22.6529 2.69957C22.5861 2.21127 22.3445 1.76367 21.9728 1.43963C21.601 1.11558 21.1244 0.937035 20.631 0.937035C20.1377 0.937035 19.661 1.11558 19.2893 1.43963C18.9175 1.76367 18.6759 2.21127 18.6092 2.69957C18.5424 3.18787 18.655 3.68381 18.926 4.09558C19.1971 4.50734 19.6084 4.80706 20.0837 4.93925L20.5551 5.06882L20.4096 5.53656C19.511 8.41568 17.7678 12.0659 14.585 13.1215C11.4023 14.1771 7.70381 13.1721 5.11583 12.1734L4.64759 12.009L4.85324 11.5539C5.03343 11.1527 5.07889 10.704 4.98283 10.2748C4.88677 9.84562 4.65433 9.45898 4.32022 9.1726C3.98611 8.88622 3.56825 8.71545 3.129 8.68579C2.68975 8.65613 2.25268 8.76916 1.88302 9.00802C1.51337 9.24688 1.23096 9.59875 1.07794 10.0111C0.924929 10.4235 0.909519 10.8742 1.03401 11.296C1.15851 11.7179 1.41623 12.0882 1.76871 12.3517C2.12119 12.6152 2.54952 12.7577 2.98977 12.7581C3.29531 12.7594 3.59715 12.6913 3.87247 12.5589L4.31856 12.3251L4.51472 12.7833C5.53345 15.1694 6.73885 18.7249 6.83693 22.413Z" fill="url(#paint1_linear_69_36)"/>
<path d="M78.0664 35.9113V17.8971L70.0557 31.8818H68.6826L60.6371 17.9066V35.9208H58.4541V13.7981H60.7004L69.3375 28.9364L78.0348 13.7981H80.2494V35.9208L78.0664 35.9113Z" fill="white"/>
<path d="M85.7986 35.9114V13.7887H87.9816V26.6452L100.175 13.7666H102.576L93.534 23.4974L103.041 35.9114H100.58L92.1293 24.8058L87.9816 29.1103V35.9114H85.7986Z" fill="white"/>
<path d="M121.562 15.7259H113.675V35.9113H111.492V15.7259H103.604V13.7949H121.562V15.7259Z" fill="white"/>
<defs>
<linearGradient id="paint0_linear_69_36" x1="0.474589" y1="11.6806" x2="40.7875" y2="11.6806" gradientUnits="userSpaceOnUse">
<stop stop-color="#E2C464"/>
<stop offset="0.23" stop-color="#997134"/>
<stop offset="0.33" stop-color="#D5B55C"/>
<stop offset="0.46" stop-color="#F6F1B7"/>
<stop offset="0.58" stop-color="#D5B55C"/>
<stop offset="0.69" stop-color="#835F2D"/>
<stop offset="1" stop-color="#D5B55C"/>
</linearGradient>
<linearGradient id="paint1_linear_69_36" x1="5.72328" y1="23.0704" x2="38.0651" y2="4.3751" gradientUnits="userSpaceOnUse">
<stop stop-color="#E2C464"/>
<stop offset="0.23" stop-color="#997134"/>
<stop offset="0.33" stop-color="#D5B55C"/>
<stop offset="0.46" stop-color="#F6F1B7"/>
<stop offset="0.58" stop-color="#D5B55C"/>
<stop offset="0.69" stop-color="#835F2D"/>
<stop offset="1" stop-color="#D5B55C"/>
</linearGradient>
</defs>
</svg>
