<svg width="65" height="65" viewBox="0 0 65 65" fill="none" xmlns="http://www.w3.org/2000/svg">
<path fill-rule="evenodd" clip-rule="evenodd" d="M32.0837 0C49.8024 0 64.167 14.3646 64.167 32.0833C64.167 49.8021 49.8024 64.1667 32.0837 64.1667C14.3649 64.1667 0.000328064 49.8021 0.000328064 32.0833C0.000328064 14.3646 14.3649 0 32.0837 0ZM26.2503 22.75C26.2456 22.3361 26.3498 21.9281 26.5525 21.5672C26.7552 21.2063 27.0494 20.9051 27.4053 20.6938C27.7511 20.4948 28.147 20.4 28.5455 20.4207C28.9439 20.4414 29.3278 20.5767 29.6512 20.8104L42.7762 30.1437C43.0809 30.3665 43.3281 30.6586 43.4975 30.9959C43.6669 31.3331 43.7536 31.7059 43.7503 32.0833C43.7503 32.865 43.3857 33.5912 42.7762 34.0258L29.6512 43.3592C29.3278 43.5929 28.9439 43.7282 28.5455 43.7489C28.147 43.7696 27.7511 43.6748 27.4053 43.4758C27.0489 43.2643 26.7545 42.9626 26.5518 42.6011C26.349 42.2396 26.245 41.8311 26.2503 41.4167V22.75Z" fill="#EBBF77"/>
</svg>
