<svg width="65" height="65" viewBox="0 0 65 65" fill="none" xmlns="http://www.w3.org/2000/svg">
<path fill-rule="evenodd" clip-rule="evenodd" d="M32.0833 0C14.3646 0 0 14.3646 0 32.0833C0 49.8021 14.3646 64.1667 32.0833 64.1667C49.8021 64.1667 64.1667 49.8021 64.1667 32.0833C64.1667 14.3646 49.8021 0 32.0833 0ZM37.9167 22.75C37.9214 22.3361 37.8172 21.9281 37.6145 21.5672C37.4118 21.2063 37.1176 20.9051 36.7617 20.6938C36.4159 20.4948 36.0199 20.4 35.6215 20.4207C35.2231 20.4414 34.8392 20.5767 34.5158 20.8104L21.3908 30.1437C21.0861 30.3665 20.8389 30.6586 20.6695 30.9959C20.5001 31.3331 20.4134 31.7059 20.4167 32.0833C20.4167 32.865 20.7812 33.5912 21.3908 34.0258L34.5158 43.3592C34.8392 43.5929 35.2231 43.7282 35.6215 43.7489C36.0199 43.7696 36.4159 43.6748 36.7617 43.4758C37.1181 43.2643 37.4125 42.9626 37.6152 42.6011C37.818 42.2396 37.922 41.8311 37.9167 41.4167V22.75Z" fill="#EBBF77"/>
</svg>
